<svg width="63" height="121" viewBox="0 0 63 121" fill="none" xmlns="http://www.w3.org/2000/svg">
<circle cx="8.31897" cy="37.9708" r="5.77356" fill="#B233DE"/>
<circle cx="22.9923" cy="37.9708" r="5.77356" fill="#B233DE"/>
<circle cx="15.6149" cy="25.0001" r="5.77356" fill="#B233DE"/>
<circle cx="15.6144" cy="50.9396" r="5.77356" fill="#B233DE"/>
<circle cx="37.6652" cy="37.9708" r="5.77356" fill="#B233DE"/>
<circle cx="52.3375" cy="37.9708" r="5.77356" fill="#B233DE"/>
<circle cx="44.9606" cy="25.0001" r="5.77356" fill="#B233DE"/>
<circle cx="44.9601" cy="50.9396" r="5.77356" fill="#B233DE"/>
<circle cx="38.1036" cy="63.9103" r="5.77356" fill="#B233DE"/>
<circle cx="30.7672" cy="76.8771" r="5.77356" fill="#B233DE"/>
<circle cx="30.2872" cy="25.0001" r="5.77356" fill="#B233DE"/>
<circle cx="30.2872" cy="50.9396" r="5.77356" fill="#B233DE"/>
<circle cx="23.4308" cy="63.9103" r="5.77356" fill="#B233DE"/>
<circle cx="36.0611" cy="36.4922" r="2.00198" fill="#ECD0F5"/>
<circle cx="50.7339" cy="36.4922" r="2.00198" fill="#ECD0F5"/>
<circle cx="43.357" cy="23.5235" r="2.00198" fill="#ECD0F5"/>
<circle cx="43.3565" cy="49.4629" r="2.00198" fill="#ECD0F5"/>
<circle cx="36.5" cy="62.4336" r="2.00198" fill="#ECD0F5"/>
<circle cx="29.1636" cy="75.4004" r="2.00198" fill="#ECD0F5"/>
<circle cx="21.3892" cy="36.4922" r="2.00198" fill="#ECD0F5"/>
<circle cx="6.71634" cy="36.4922" r="2.00198" fill="#ECD0F5"/>
<circle cx="28.7657" cy="23.5196" r="2.00198" fill="#ECD0F5"/>
<circle cx="28.7652" cy="49.459" r="2.00198" fill="#ECD0F5"/>
<circle cx="21.9092" cy="62.4278" r="2.00198" fill="#ECD0F5"/>
<circle cx="14.648" cy="23.5196" r="2.00198" fill="#ECD0F5"/>
<circle cx="14.6475" cy="49.459" r="2.00198" fill="#ECD0F5"/>
<path fill-rule="evenodd" clip-rule="evenodd" d="M26.2632 7.56414C22.3922 0.58998 14.9058 0.24321 10.7487 1.30713C10.1367 10.7105 14.5441 14.757 19.5238 16.161C20.6863 16.4887 21.8801 16.6725 23.0484 16.7467C25.0863 16.8762 27.0471 16.6726 28.6303 16.3191C28.4111 13.4581 27.8435 11.0936 27.0294 9.14881C26.7938 8.58606 26.5376 8.05845 26.2632 7.56414Z" fill="#58CD79"/>
<path fill-rule="evenodd" clip-rule="evenodd" d="M34.312 7.56414C38.183 0.58998 45.6694 0.24321 49.8265 1.30713C50.4385 10.7105 46.0311 14.757 41.0514 16.161C39.8889 16.4887 38.6951 16.6725 37.5268 16.7467C35.4888 16.8762 33.5281 16.6726 31.9449 16.3191C32.1641 13.4581 32.7317 11.0936 33.5458 9.14881C33.7814 8.58606 34.0376 8.05845 34.312 7.56414Z" fill="#58CD79"/>
<path d="M3.21612 100.863C3.35406 100.365 3.56021 99.9851 3.83458 99.7244C4.11034 99.4477 4.48218 99.2409 4.9501 99.104C4.29569 98.4975 3.81745 97.7642 3.5154 96.9041C3.21473 96.028 3.10834 95.0879 3.19621 94.0838C3.3078 92.8086 3.56347 91.8633 3.96322 91.2478C4.37828 90.6368 4.9277 90.2873 5.61145 90.1992C6.2952 90.1112 7.1349 90.2174 8.13053 90.5179L10.2903 91.1699C10.4894 91.23 10.6064 91.3307 10.6412 91.4721C10.6927 91.6022 10.7149 91.707 10.708 91.7867L9.28521 108.045C8.5653 107.827 7.99159 107.646 7.5641 107.501C7.15193 107.36 6.90964 107.254 6.83724 107.183C6.78155 107.101 6.76137 106.972 6.77672 106.797L7.32489 100.533L7.0262 100.442C6.52073 100.29 6.13562 100.738 5.87089 101.787L4.87389 106.173C4.82791 106.339 4.77846 106.455 4.72553 106.521C4.6726 106.587 4.56816 106.613 4.4122 106.598C4.25623 106.584 4.0021 106.523 3.6498 106.417C3.11369 106.255 2.56436 106.065 2.0018 105.846L3.21612 100.863ZM7.0558 97.9482C7.23961 98.0037 7.40323 98.0204 7.54667 97.9982L7.99232 92.9057C7.78206 92.7931 7.56971 92.7045 7.35527 92.6398C7.01828 92.538 6.74045 92.6587 6.52177 93.0017C6.30449 93.3287 6.16307 93.8668 6.09751 94.616C6.00964 95.6201 6.04364 96.3993 6.19953 96.9535C6.35681 97.4918 6.64223 97.8234 7.0558 97.9482Z" fill="#B233DE"/>
<path d="M1.33305 108.098L9.78825 110.65L9.68363 111.846L1.22844 109.294L1.33305 108.098Z" fill="#B233DE"/>
<path d="M13.4626 92.2797C13.467 92.1998 13.5036 92.1099 13.5726 92.0098C13.6424 91.8938 13.7717 91.8534 13.9604 91.8887L19.4334 92.9131C19.4005 93.5202 19.3662 94.006 19.3305 94.3705C19.2948 94.735 19.2434 94.9514 19.1761 95.0195C19.1246 95.0905 19.0124 95.1099 18.8394 95.0775L15.9849 94.5432L15.2229 108.587C15.2186 108.666 15.1893 108.766 15.1352 108.885C15.082 108.988 14.9689 109.023 14.7959 108.991L12.5784 108.576L13.4626 92.2797Z" fill="#B233DE"/>
<path d="M11.717 110.835L18.629 112.129L18.564 113.327L11.652 112.034L11.717 110.835Z" fill="#B233DE"/>
<path d="M25.0867 110.409C23.9857 110.327 23.1372 110.024 22.5411 109.5C21.945 108.975 21.5167 108.078 21.2562 106.809C21.0117 105.541 20.9148 103.724 20.9655 101.356C21.0114 99.2128 21.2073 97.529 21.5531 96.3049C21.9149 95.0819 22.4286 94.2307 23.0941 93.7511C23.7756 93.2728 24.6509 93.0731 25.72 93.152C26.7891 93.231 27.6215 93.5409 28.2172 94.0815C28.8129 94.6222 29.2334 95.5104 29.4786 96.7462C29.7398 97.9831 29.8468 99.7054 29.7995 101.913C29.7515 104.152 29.5543 105.9 29.2077 107.156C28.8612 108.412 28.355 109.288 27.6891 109.784C27.0392 110.281 26.1717 110.489 25.0867 110.409ZM25.2894 107.66C25.6883 107.689 25.9958 107.512 26.2118 107.127C26.4278 106.743 26.5846 106.137 26.6822 105.311C26.7801 104.47 26.8452 103.297 26.8774 101.793C26.9106 100.241 26.9037 99.0714 26.8567 98.2828C26.8256 97.4955 26.7103 96.9102 26.5107 96.5269C26.3271 96.1449 26.0279 95.9385 25.613 95.9079C25.2301 95.8796 24.9224 96.0651 24.6901 96.4645C24.4741 96.8491 24.3085 97.4938 24.1932 98.3985C24.0939 99.3044 24.027 100.565 23.9924 102.181C23.9632 103.54 23.9725 104.599 24.0203 105.355C24.0839 106.113 24.2076 106.683 24.3912 107.065C24.5911 107.432 24.8905 107.63 25.2894 107.66Z" fill="#B233DE"/>
<path d="M20.2535 112.214L30.0667 112.939L30.041 114.139L20.2278 113.414L20.2535 112.214Z" fill="#B233DE"/>
<path d="M32.733 114.044C32.2697 114.069 31.926 114.072 31.7018 114.052C31.4936 114.031 31.3487 113.967 31.267 113.859C31.1854 113.752 31.1428 113.586 31.1393 113.362L31.0526 107.867L31.5079 107.842C31.9233 107.819 32.2305 107.53 32.4296 106.975C32.6447 106.419 32.8174 105.201 32.9476 103.32C33.0936 101.423 33.2519 98.284 33.4226 93.9035C33.4358 93.7267 33.466 93.6129 33.5132 93.5623C33.5601 93.4957 33.7193 93.4471 33.9906 93.4163C34.2779 93.3846 34.6612 93.3558 35.1405 93.3297L39.9814 93.0662L40.207 107.368L41.4052 107.303L41.4919 112.799C41.4955 113.023 41.4582 113.193 41.3801 113.309C41.302 113.425 41.1513 113.506 40.9282 113.55C40.721 113.593 40.3777 113.628 39.8984 113.654C39.6616 112.834 39.4832 112.163 39.363 111.641C39.2591 111.135 39.1781 110.563 39.1201 109.925L33.4165 110.236C33.3784 110.862 33.3072 111.419 33.203 111.905C33.1149 112.406 32.9583 113.119 32.733 114.044ZM37.547 107.513L37.3607 95.7067L35.9947 95.781C35.8238 99.1368 35.6406 101.717 35.4452 103.521C35.2655 105.308 35.0075 106.691 34.6712 107.67L37.547 107.513Z" fill="#B233DE"/>
<path d="M30.7703 112.782L41.7221 112.186L41.7411 113.385L30.7893 113.981L30.7703 112.782Z" fill="#B233DE"/>
<path d="M49.0944 108.323C48.5278 108.427 47.9127 108.516 47.2492 108.589L46.7814 104.27C46.6884 103.416 46.5591 102.778 46.3937 102.357C46.2283 101.936 46.0395 101.672 45.8273 101.565C45.615 101.459 45.3594 101.433 45.0604 101.488L44.8007 101.536L45.1712 108.51C45.1806 108.686 45.1476 108.813 45.0723 108.891C44.9961 108.953 44.7382 109.033 44.2983 109.13C43.8743 109.223 43.2845 109.34 42.5291 109.478L41.6633 93.181C41.654 93.0053 41.6874 92.8862 41.7635 92.8239C41.8388 92.7455 42.0885 92.6595 42.5126 92.5656C42.9524 92.4689 43.55 92.3513 44.3055 92.2129L44.6645 98.9714L45.0422 98.9021C45.294 98.856 45.5224 98.6689 45.7275 98.341C45.9483 98.0101 46.0915 97.5644 46.157 97.0039L46.6278 91.9567C47.1876 91.7251 47.7429 91.5588 48.2938 91.4579C48.7187 91.38 49.0115 91.3586 49.1723 91.3937C49.3331 91.4287 49.4186 91.5421 49.4287 91.7339C49.433 91.8138 49.4285 91.8791 49.4153 91.9299L48.7531 96.9638C48.5888 98.0587 48.1955 98.8809 47.5731 99.4305C48.6607 99.8604 49.3508 101.186 49.6436 103.407L50.151 107.573C50.1786 107.794 50.1237 107.957 49.9863 108.063C49.8481 108.153 49.5508 108.24 49.0944 108.323Z" fill="#B233DE"/>
<path d="M41.9246 112.009L51.0133 110.343L51.0769 111.542L41.9883 113.207L41.9246 112.009Z" fill="#B233DE"/>
<path d="M62.09 104.15C62.1347 104.3 62.0841 104.438 61.9382 104.565C61.7923 104.691 61.4745 104.83 60.9849 104.979C60.4494 105.143 59.9583 105.277 59.5118 105.381L58.4153 101.787L55.3169 102.735L54.9503 106.309C54.9213 106.515 54.8415 106.678 54.7109 106.8C54.5941 106.901 54.2986 107.024 53.8243 107.169C53.2888 107.333 52.7504 107.465 52.2093 107.565L54.6027 90.1605C54.6343 89.8071 54.9637 89.5345 55.591 89.3426C56.1112 89.1835 56.5195 89.0914 56.8159 89.0662L62.09 104.15ZM57.7213 99.5442L57.0631 97.4374C56.7318 96.3601 56.3994 94.9148 56.0657 93.1016C56.031 95.1912 55.958 96.7604 55.8467 97.8094L55.5869 100.197L57.7213 99.5442Z" fill="#B233DE"/>
<path d="M52.3796 110.018L62.409 106.95L62.515 108.145L52.4856 111.213L52.3796 110.018Z" fill="#B233DE"/>
</svg>
