<svg width="20" height="15" viewBox="0 0 20 15" fill="none" xmlns="http://www.w3.org/2000/svg">
<path d="M19.9273 6.0991V6.62724C19.9273 7.06478 19.5636 7.41946 19.1148 7.41946H18.844L17.9599 13.4531C17.8456 14.2336 17.1599 14.8134 16.3512 14.8134H4.00288C3.19418 14.8134 2.50855 14.2336 2.39415 13.4531L1.51012 7.41946H1.23928C0.790532 7.41946 0.426758 7.06478 0.426758 6.62724V6.0991C0.426758 5.66157 0.790532 5.30689 1.23928 5.30689H3.51912L7.13418 0.460507C7.4861 -0.0112546 8.16361 -0.115595 8.64754 0.227531C9.13143 0.570657 9.23842 1.23126 8.88649 1.70306L6.19829 5.30689H14.1558L11.4676 1.70302C11.1157 1.23126 11.2227 0.570624 11.7066 0.227498C12.1904 -0.115628 12.868 -0.0113206 13.22 0.460474L16.835 5.30689H19.1148C19.5636 5.30689 19.9273 5.66157 19.9273 6.0991ZM10.9896 11.9087V8.21167C10.9896 7.77413 10.6258 7.41946 10.177 7.41946C9.7283 7.41946 9.36453 7.77413 9.36453 8.21167V11.9087C9.36453 12.3462 9.7283 12.7009 10.177 12.7009C10.6258 12.7009 10.9896 12.3462 10.9896 11.9087ZM14.7814 11.9087V8.21167C14.7814 7.77413 14.4176 7.41946 13.9688 7.41946C13.5201 7.41946 13.1563 7.77413 13.1563 8.21167V11.9087C13.1563 12.3462 13.5201 12.7009 13.9688 12.7009C14.4176 12.7009 14.7814 12.3462 14.7814 11.9087ZM7.19779 11.9087V8.21167C7.19779 7.77413 6.83402 7.41946 6.38527 7.41946C5.93652 7.41946 5.57275 7.77413 5.57275 8.21167V11.9087C5.57275 12.3462 5.93652 12.7009 6.38527 12.7009C6.83402 12.7009 7.19779 12.3462 7.19779 11.9087Z" fill="black"/>
</svg>
